<?xml version="1.0" encoding="UTF-8" standalone="no"?>
<!DOCTYPE svg PUBLIC "-//W3C//DTD SVG 1.1//EN" "http://www.w3.org/Graphics/SVG/1.1/DTD/svg11.dtd">
<svg version="1.1" xmlns="http://www.w3.org/2000/svg" xmlns:xlink="http://www.w3.org/1999/xlink" preserveAspectRatio="xMidYMid meet" viewBox="0 0 640 640" width="640" height="640"><defs><path d="M640 320C640 496.61 496.61 640 320 640C143.39 640 0 496.61 0 320C0 143.39 143.39 0 320 0C496.61 0 640 143.39 640 320Z" id="c82lfTiAW"></path><path d="M370.72 110.18L372.47 110.61L374.21 111.06L375.94 111.51L377.67 111.99L379.39 112.47L381.1 112.97L382.81 113.48L384.51 114.01L386.21 114.55L387.9 115.11L389.58 115.68L391.26 116.26L392.93 116.85L394.59 117.46L396.25 118.08L397.9 118.71L399.55 119.36L401.19 120.02L402.82 120.69L404.44 121.38L406.06 122.08L407.67 122.79L409.28 123.52L410.87 124.25L412.47 125L414.05 125.76L415.62 126.54L417.19 127.32L418.76 128.12L420.31 128.93L421.86 129.76L423.4 130.59L424.93 131.44L426.46 132.3L427.98 133.17L429.49 134.05L430.99 134.94L432.49 135.85L433.98 136.77L498.21 90.92L549.11 141.83L503.23 206.02L504.15 207.51L505.06 209.01L505.96 210.51L506.84 212.02L507.71 213.54L508.57 215.07L509.42 216.6L510.26 218.14L511.08 219.69L511.89 221.24L512.69 222.81L513.48 224.37L514.25 225.95L515.01 227.53L515.76 229.12L516.5 230.72L517.22 232.33L517.93 233.94L518.63 235.56L519.31 237.18L519.99 238.81L520.64 240.45L521.29 242.1L521.92 243.75L522.54 245.4L523.15 247.07L523.74 248.74L524.32 250.42L524.89 252.1L525.44 253.79L525.98 255.49L526.5 257.19L527.01 258.9L527.51 260.61L527.99 262.33L528.46 264.06L528.92 265.79L529.36 267.53L529.79 269.28L530.2 271.03L608 284L608 356L530.2 368.97L529.79 370.72L529.36 372.46L528.92 374.2L528.46 375.93L527.99 377.66L527.51 379.38L527.01 381.09L526.5 382.8L525.98 384.5L525.44 386.19L524.89 387.88L524.32 389.57L523.74 391.24L523.15 392.91L522.54 394.58L521.92 396.24L521.29 397.89L520.64 399.53L519.99 401.17L519.31 402.81L518.63 404.43L517.93 406.05L517.22 407.66L516.5 409.27L515.76 410.87L515.01 412.46L514.25 414.04L513.48 415.62L512.69 417.19L511.89 418.75L511.08 420.31L510.26 421.86L509.42 423.4L508.57 424.93L507.71 426.46L506.84 427.98L505.96 429.49L505.06 430.99L504.15 432.49L503.23 433.98L549.11 498.21L498.21 549.11L433.98 503.23L432.49 504.15L430.99 505.06L429.49 505.96L427.98 506.84L426.46 507.71L424.93 508.57L423.4 509.42L421.86 510.26L420.31 511.08L418.75 511.89L417.19 512.69L415.62 513.48L414.04 514.25L412.46 515.01L410.87 515.76L409.27 516.5L407.66 517.22L406.05 517.93L404.43 518.63L402.81 519.31L401.17 519.99L399.54 520.64L397.89 521.29L396.24 521.92L394.58 522.54L392.92 523.15L391.24 523.74L389.57 524.32L387.88 524.89L386.19 525.44L384.5 525.98L382.8 526.5L381.09 527.01L379.38 527.51L377.66 527.99L375.93 528.46L374.2 528.92L372.46 529.36L370.72 529.79L368.97 530.2L356 608L284 608L271.03 530.2L269.28 529.79L267.54 529.36L265.8 528.92L264.07 528.46L262.34 527.99L260.62 527.51L258.91 527.01L257.2 526.5L255.5 525.98L253.81 525.44L252.12 524.89L250.43 524.32L248.76 523.74L247.09 523.15L245.42 522.54L243.76 521.92L242.11 521.29L240.47 520.64L238.83 519.99L237.2 519.31L235.57 518.63L233.96 517.93L232.34 517.22L230.74 516.5L229.14 515.76L227.55 515.01L225.97 514.25L224.39 513.48L222.82 512.69L221.26 511.89L219.71 511.08L218.16 510.26L216.62 509.42L215.09 508.57L213.57 507.71L212.05 506.84L210.54 505.96L209.04 505.06L207.54 504.15L206.06 503.23L141.79 549.11L90.89 498.21L136.77 433.98L135.85 432.49L134.94 430.99L134.04 429.49L133.16 427.98L132.29 426.46L131.43 424.93L130.58 423.4L129.74 421.86L128.92 420.31L128.11 418.76L127.31 417.19L126.52 415.63L125.75 414.05L124.99 412.47L124.24 410.88L123.5 409.28L122.78 407.67L122.07 406.06L121.37 404.44L120.69 402.82L120.01 401.19L119.36 399.55L118.71 397.9L118.08 396.25L117.46 394.6L116.85 392.93L116.26 391.26L115.68 389.58L115.11 387.9L114.56 386.21L114.02 384.51L113.5 382.81L112.99 381.1L112.49 379.39L112.01 377.67L111.54 375.94L111.08 374.21L110.64 372.47L110.21 370.72L109.8 368.97L32 356L32 284L109.8 271.03L110.21 269.28L110.64 267.53L111.08 265.79L111.54 264.06L112.01 262.33L112.49 260.61L112.99 258.9L113.5 257.19L114.02 255.48L114.56 253.79L115.11 252.1L115.68 250.41L116.26 248.73L116.85 247.06L117.46 245.4L118.08 243.74L118.71 242.08L119.36 240.44L120.01 238.8L120.69 237.17L121.37 235.54L122.07 233.92L122.78 232.31L123.5 230.71L124.24 229.11L124.99 227.52L125.75 225.94L126.52 224.36L127.31 222.79L128.11 221.23L128.92 219.67L129.74 218.13L130.58 216.59L131.43 215.06L132.29 213.53L133.16 212.01L134.04 210.5L134.94 209L135.85 207.51L136.77 206.02L90.89 141.83L141.79 90.92L206.02 136.77L207.51 135.85L209.01 134.94L210.51 134.05L212.02 133.17L213.54 132.3L215.07 131.44L216.6 130.59L218.14 129.76L219.69 128.93L221.25 128.12L222.81 127.32L224.38 126.54L225.96 125.76L227.54 125L229.13 124.25L230.73 123.52L232.34 122.79L233.95 122.08L235.57 121.38L237.19 120.7L238.83 120.02L240.46 119.36L242.11 118.71L243.76 118.08L245.42 117.46L247.08 116.85L248.76 116.26L250.43 115.68L252.12 115.11L253.81 114.55L255.5 114.01L257.2 113.49L258.91 112.97L260.62 112.47L262.34 111.99L264.07 111.51L265.8 111.06L267.54 110.61L269.28 110.18L271.03 109.77L284 32L356 32L368.97 109.77L370.72 110.18ZM308.19 176.48L302.38 177.07L296.64 177.88L290.98 178.93L285.4 180.19L279.9 181.66L274.49 183.34L269.17 185.23L263.95 187.32L258.84 189.6L253.83 192.07L248.93 194.73L244.15 197.58L239.49 200.59L234.96 203.79L230.56 207.14L226.29 210.67L222.16 214.35L218.18 218.18L214.35 222.16L210.67 226.29L207.14 230.56L203.79 234.96L200.59 239.49L197.58 244.15L194.73 248.93L192.07 253.83L189.6 258.84L187.32 263.95L185.23 269.17L183.34 274.49L181.66 279.9L180.19 285.4L178.93 290.98L177.88 296.64L177.07 302.38L176.48 308.19L176.12 314.06L176 320L176.12 325.94L176.48 331.81L177.07 337.62L177.88 343.36L178.93 349.02L180.19 354.6L181.66 360.1L183.34 365.51L185.23 370.83L187.32 376.05L189.6 381.16L192.07 386.17L194.73 391.07L197.58 395.85L200.59 400.51L203.79 405.04L207.14 409.44L210.67 413.71L214.34 417.84L218.18 421.82L222.16 425.65L226.29 429.33L230.56 432.86L234.96 436.21L239.49 439.41L244.15 442.42L248.93 445.27L253.83 447.93L258.83 450.4L263.95 452.68L269.17 454.77L274.49 456.66L279.9 458.34L285.4 459.81L290.98 461.07L296.64 462.12L302.38 462.93L308.19 463.52L314.06 463.88L320 464L325.94 463.88L331.81 463.52L337.62 462.93L343.36 462.12L349.02 461.07L354.6 459.81L360.1 458.34L365.51 456.66L370.83 454.77L376.05 452.68L381.17 450.4L386.17 447.93L391.07 445.27L395.85 442.42L400.51 439.41L405.04 436.21L409.44 432.86L413.71 429.33L417.84 425.65L421.82 421.82L425.66 417.84L429.33 413.71L432.86 409.44L436.21 405.04L439.41 400.51L442.42 395.85L445.27 391.07L447.93 386.17L450.4 381.16L452.68 376.05L454.77 370.83L456.66 365.51L458.34 360.1L459.81 354.6L461.07 349.02L462.12 343.36L462.93 337.62L463.52 331.81L463.88 325.94L464 320L463.88 314.06L463.52 308.19L462.93 302.38L462.12 296.64L461.07 290.98L459.81 285.4L458.34 279.9L456.66 274.49L454.77 269.17L452.68 263.95L450.4 258.84L447.93 253.83L445.27 248.93L442.42 244.15L439.41 239.49L436.21 234.96L432.86 230.56L429.33 226.29L425.65 222.16L421.82 218.18L417.84 214.35L413.71 210.67L409.44 207.14L405.04 203.79L400.51 200.59L395.85 197.58L391.07 194.73L386.17 192.07L381.16 189.6L376.05 187.32L370.83 185.23L365.51 183.34L360.1 181.66L354.6 180.19L349.02 178.93L343.36 177.88L337.62 177.07L331.81 176.48L325.94 176.12L320 176L314.06 176.12L308.19 176.48Z" id="b3DvSCEe1U"></path><path d="M294.11 425.43C290.1 425.43 286.86 428.69 286.86 432.68C286.86 436.69 290.13 439.92 294.11 439.92C299.28 439.92 340.66 439.92 345.83 439.92C349.85 439.92 353.08 436.66 353.08 432.68C353.11 428.69 349.85 425.43 345.86 425.43C335.51 425.43 299.28 425.43 294.11 425.43Z" id="ePVRka3GT"></path><path d="M320 475.51C326.78 475.51 332.35 470.49 333.34 463.99C342.23 463.48 349.27 456.17 349.27 447.17C343.41 447.17 296.53 447.17 290.67 447.17C290.7 456.17 297.77 463.48 306.66 463.99C307.65 470.52 313.22 475.51 320 475.51Z" id="a1tgzKvFr4"></path><path d="M329.67 224.82C329.67 222.57 329.67 204.56 329.67 202.31C329.67 196.97 325.34 192.64 320 192.64C314.66 192.64 310.33 196.97 310.33 202.31C310.33 204.56 310.33 222.57 310.33 224.82C310.33 230.16 314.66 234.49 320 234.49C325.34 234.49 329.67 230.16 329.67 224.82Z" id="bmlHxygN9"></path><path d="M264.38 252.56C266.34 252.56 268.33 251.96 270.06 250.71C274.39 247.57 275.35 241.54 272.2 237.21C270.88 235.38 260.3 220.81 258.98 218.99C255.83 214.66 249.8 213.71 245.47 216.86C241.14 220 240.19 226.04 243.34 230.37C244.22 231.58 248.61 237.65 256.53 248.58C259.76 251.23 262.38 252.56 264.38 252.56Z" id="b2weP4H59h"></path><path d="M211.56 274.09C206.42 272.45 201.02 275.22 199.38 280.3C197.73 285.38 200.5 290.84 205.58 292.48C207.72 293.18 224.86 298.74 227 299.44C228.01 299.76 228.99 299.93 230 299.93C234.07 299.93 237.88 297.33 239.21 293.23C240.82 288.15 238.05 282.7 232.97 281.05C228.69 279.66 213.7 274.79 211.56 274.09Z" id="bSy0K11ZO"></path><path d="M413.03 339.56C407.95 337.91 402.49 340.69 400.85 345.77C399.2 350.85 401.98 356.3 407.06 357.95C409.2 358.64 426.33 364.21 428.47 364.9C429.45 365.22 430.46 365.36 431.45 365.36C435.52 365.36 439.33 362.77 440.65 358.67C442.3 353.62 439.53 348.16 434.45 346.52C430.16 345.12 415.17 340.26 413.03 339.56Z" id="ki5q5ouJT"></path><path d="M205.55 346.49C200.47 348.13 197.67 353.59 199.35 358.67C200.67 362.77 204.46 365.36 208.55 365.36C209.54 365.36 210.55 365.22 211.56 364.87C213.7 364.18 230.83 358.61 232.97 357.92C238.05 356.27 240.85 350.82 239.18 345.74C237.53 340.69 232.11 337.91 226.97 339.56C222.69 340.95 207.69 345.79 205.55 346.49Z" id="a6eEiVYox"></path><path d="M413.03 299.44C415.17 298.74 432.31 293.18 434.45 292.48C439.53 290.84 442.33 285.38 440.65 280.3C439.01 275.22 433.52 272.45 428.47 274.09C426.33 274.79 409.2 280.36 407.06 281.05C401.98 282.7 399.18 288.15 400.85 293.23C402.18 297.3 405.96 299.93 410.06 299.93C411.04 299.93 412.05 299.78 413.03 299.44Z" id="j38D9TWkb"></path><path d="M367.83 237.23C364.68 241.56 365.66 247.6 369.96 250.74C371.7 251.98 373.69 252.59 375.65 252.59C378.65 252.59 381.6 251.21 383.5 248.61C384.82 246.79 395.4 232.22 396.72 230.39C399.87 226.06 398.89 220.03 394.59 216.89C390.23 213.71 384.19 214.69 381.05 219.02C378.4 222.66 369.15 235.41 367.83 237.23Z" id="aJW2ga1ta"></path><path d="M325.73 250.2L328.55 250.48L331.33 250.88L334.08 251.38L336.79 252L339.46 252.71L342.09 253.53L344.67 254.44L347.2 255.46L349.68 256.56L352.11 257.76L354.49 259.05L356.81 260.43L359.07 261.9L361.27 263.45L363.4 265.08L365.47 266.78L367.48 268.57L369.41 270.43L371.27 272.36L373.05 274.36L374.76 276.43L376.39 278.57L377.94 280.77L379.4 283.03L380.78 285.35L382.07 287.72L383.27 290.15L384.38 292.63L385.39 295.16L386.3 297.74L387.12 300.37L387.83 303.03L388.44 305.74L388.95 308.49L389.34 311.27L389.62 314.09L389.8 316.94L389.85 319.82L389.84 321.04L389.81 322.25L389.76 323.46L389.69 324.67L389.59 325.87L389.48 327.06L389.35 328.24L389.2 329.42L389.02 330.6L388.83 331.77L388.62 332.93L388.39 334.08L388.14 335.23L387.87 336.37L387.59 337.5L387.28 338.62L386.96 339.74L386.62 340.85L386.26 341.95L385.88 343.05L385.49 344.13L385.08 345.21L384.65 346.27L384.2 347.33L383.74 348.38L383.26 349.42L382.77 350.45L382.25 351.48L381.73 352.49L381.18 353.49L380.62 354.48L380.05 355.47L379.46 356.44L378.85 357.4L378.23 358.35L377.59 359.29L376.94 360.22L376.27 361.14L375.59 362.04L374.9 362.94L374.32 363.69L373.73 364.45L373.14 365.21L372.55 365.99L371.95 366.78L371.36 367.57L370.76 368.38L370.16 369.19L369.56 370.01L368.96 370.84L368.36 371.67L367.75 372.51L367.15 373.35L366.55 374.2L365.95 375.06L365.35 375.91L364.75 376.78L364.15 377.64L363.55 378.51L362.96 379.39L362.36 380.26L361.77 381.14L361.19 382.01L360.6 382.89L360.02 383.77L359.44 384.65L358.86 385.53L358.29 386.41L357.72 387.29L357.16 388.16L356.6 389.04L356.05 389.91L355.5 390.78L354.96 391.64L354.42 392.5L353.89 393.36L353.37 394.21L352.85 395.06L352.34 395.9L351.84 396.74L351.84 419.34L287.76 419.34L287.76 396.13L287.25 395.28L286.74 394.42L286.23 393.56L285.71 392.71L285.19 391.85L284.66 391L284.14 390.14L283.6 389.29L283.07 388.44L282.53 387.59L281.99 386.74L281.44 385.89L280.89 385.04L280.34 384.19L279.79 383.35L279.23 382.5L278.67 381.66L278.1 380.82L277.54 379.98L276.97 379.15L276.39 378.31L275.82 377.48L275.24 376.65L274.66 375.82L274.08 375L273.49 374.17L272.91 373.35L272.32 372.53L271.72 371.72L271.13 370.9L270.53 370.09L269.93 369.29L269.33 368.48L268.73 367.68L268.12 366.88L267.52 366.09L266.91 365.29L266.3 364.51L265.68 363.72L265.07 362.94L264.38 362.04L263.7 361.14L263.03 360.22L262.38 359.29L261.74 358.35L261.12 357.4L260.52 356.44L259.92 355.47L259.35 354.48L258.79 353.49L258.24 352.49L257.72 351.48L257.2 350.45L256.71 349.42L256.23 348.38L255.77 347.33L255.32 346.28L254.89 345.21L254.48 344.13L254.09 343.05L253.71 341.96L253.35 340.86L253.01 339.75L252.69 338.63L252.38 337.51L252.1 336.38L251.83 335.24L251.58 334.09L251.35 332.94L251.14 331.78L250.95 330.61L250.78 329.44L250.62 328.26L250.49 327.08L250.38 325.88L250.29 324.69L250.21 323.48L250.16 322.28L250.13 321.06L250.12 319.85L250.18 316.96L250.35 314.11L250.64 311.3L251.03 308.51L251.54 305.76L252.15 303.05L252.87 300.38L253.68 297.76L254.6 295.18L255.61 292.65L256.72 290.16L257.92 287.73L259.21 285.36L260.59 283.04L262.05 280.78L263.6 278.58L265.23 276.44L266.94 274.37L268.73 272.37L270.59 270.43L272.52 268.57L274.52 266.79L276.59 265.08L278.73 263.45L280.93 261.9L283.19 260.43L285.51 259.06L287.89 257.76L290.32 256.56L292.8 255.46L295.33 254.44L297.91 253.53L300.54 252.71L303.21 252L305.92 251.38L308.67 250.88L311.45 250.48L314.27 250.2L317.12 250.02L320 249.96L322.88 250.02L325.73 250.2ZM303 273.94L300.69 274.35L298.44 274.92L296.25 275.63L294.13 276.49L292.08 277.48L290.11 278.6L288.23 279.85L286.44 281.22L284.74 282.71L283.15 284.3L281.67 285.99L280.3 287.79L279.05 289.67L277.92 291.64L276.93 293.68L276.07 295.81L275.36 298L274.79 300.25L274.38 302.55L274.13 304.91L274.05 307.32L274.06 307.6L274.09 307.88L274.14 308.15L274.2 308.42L274.29 308.68L274.39 308.93L274.51 309.17L274.64 309.4L274.79 309.62L274.95 309.84L275.12 310.04L275.31 310.22L275.51 310.4L275.72 310.56L275.95 310.71L276.18 310.84L276.42 310.96L276.67 311.06L276.93 311.15L277.2 311.21L277.47 311.26L277.75 311.29L278.03 311.3L278.31 311.29L278.59 311.26L278.87 311.21L279.13 311.15L279.39 311.06L279.64 310.96L279.88 310.84L280.12 310.71L280.34 310.56L280.55 310.4L280.75 310.22L280.94 310.04L281.11 309.84L281.28 309.62L281.42 309.4L281.56 309.17L281.67 308.93L281.77 308.68L281.86 308.42L281.93 308.15L281.97 307.88L282 307.6L282.01 307.32L282.08 305.48L282.27 303.68L282.58 301.92L283.02 300.2L283.56 298.52L284.21 296.9L284.97 295.34L285.83 293.84L286.79 292.4L287.83 291.03L288.96 289.74L290.18 288.52L291.47 287.39L292.84 286.34L294.28 285.39L295.78 284.53L297.35 283.77L298.97 283.12L300.64 282.57L302.36 282.14L304.12 281.83L305.92 281.64L307.76 281.57L308.05 281.56L308.32 281.53L308.6 281.48L308.86 281.42L309.12 281.33L309.37 281.23L309.61 281.11L309.85 280.98L310.07 280.83L310.28 280.67L310.48 280.49L310.67 280.31L310.84 280.11L311.01 279.89L311.15 279.67L311.29 279.44L311.4 279.2L311.51 278.95L311.59 278.69L311.66 278.42L311.71 278.15L311.73 277.87L311.74 277.59L311.73 277.3L311.71 277.03L311.66 276.75L311.59 276.49L311.51 276.23L311.4 275.98L311.29 275.74L311.15 275.5L311.01 275.28L310.84 275.07L310.67 274.87L310.48 274.68L310.28 274.51L310.07 274.34L309.85 274.2L309.61 274.06L309.37 273.94L309.12 273.84L308.86 273.76L308.6 273.69L308.32 273.64L308.05 273.61L307.76 273.6L305.36 273.69L303 273.94Z" id="ecmIiWa1L8"></path></defs><g><g><g><use xlink:href="#c82lfTiAW" opacity="1" fill="#222222" fill-opacity="1"></use></g><g><use xlink:href="#b3DvSCEe1U" opacity="1" fill="#f5f5f5" fill-opacity="1"></use><g><use xlink:href="#b3DvSCEe1U" opacity="1" fill-opacity="0" stroke="#000000" stroke-width="1" stroke-opacity="0"></use></g></g><g><use xlink:href="#ePVRka3GT" opacity="1" fill="#f5f5f5" fill-opacity="1"></use><g><use xlink:href="#ePVRka3GT" opacity="1" fill-opacity="0" stroke="#000000" stroke-width="1" stroke-opacity="0"></use></g></g><g><use xlink:href="#a1tgzKvFr4" opacity="1" fill="#f5f5f5" fill-opacity="1"></use><g><use xlink:href="#a1tgzKvFr4" opacity="1" fill-opacity="0" stroke="#000000" stroke-width="1" stroke-opacity="0"></use></g></g><g><use xlink:href="#bmlHxygN9" opacity="1" fill="#f5f5f5" fill-opacity="1"></use><g><use xlink:href="#bmlHxygN9" opacity="1" fill-opacity="0" stroke="#000000" stroke-width="1" stroke-opacity="0"></use></g></g><g><use xlink:href="#b2weP4H59h" opacity="1" fill="#f5f5f5" fill-opacity="1"></use><g><use xlink:href="#b2weP4H59h" opacity="1" fill-opacity="0" stroke="#000000" stroke-width="1" stroke-opacity="0"></use></g></g><g><use xlink:href="#bSy0K11ZO" opacity="1" fill="#f5f5f5" fill-opacity="1"></use><g><use xlink:href="#bSy0K11ZO" opacity="1" fill-opacity="0" stroke="#000000" stroke-width="1" stroke-opacity="0"></use></g></g><g><use xlink:href="#ki5q5ouJT" opacity="1" fill="#f5f5f5" fill-opacity="1"></use><g><use xlink:href="#ki5q5ouJT" opacity="1" fill-opacity="0" stroke="#000000" stroke-width="1" stroke-opacity="0"></use></g></g><g><use xlink:href="#a6eEiVYox" opacity="1" fill="#f5f5f5" fill-opacity="1"></use><g><use xlink:href="#a6eEiVYox" opacity="1" fill-opacity="0" stroke="#000000" stroke-width="1" stroke-opacity="0"></use></g></g><g><use xlink:href="#j38D9TWkb" opacity="1" fill="#f5f5f5" fill-opacity="1"></use><g><use xlink:href="#j38D9TWkb" opacity="1" fill-opacity="0" stroke="#000000" stroke-width="1" stroke-opacity="0"></use></g></g><g><use xlink:href="#aJW2ga1ta" opacity="1" fill="#f5f5f5" fill-opacity="1"></use><g><use xlink:href="#aJW2ga1ta" opacity="1" fill-opacity="0" stroke="#000000" stroke-width="1" stroke-opacity="0"></use></g></g><g><use xlink:href="#ecmIiWa1L8" opacity="1" fill="#f5f5f5" fill-opacity="1"></use><g><use xlink:href="#ecmIiWa1L8" opacity="1" fill-opacity="0" stroke="#000000" stroke-width="1" stroke-opacity="0"></use></g></g></g></g></svg>